<svg width="119" height="38" viewBox="0 0 119 38" fill="none" xmlns="http://www.w3.org/2000/svg">
<g clip-path="url(#clip0_759_12523)">
<path d="M15.7732 25.7954C14.9921 26.5765 13.7258 26.5765 12.9448 25.7954L9.41176 22.2624C5.91251 18.7632 0 21.2368 0 26.184V30.6395C0 31.7441 0.89543 32.6395 2 32.6395H26.7179C27.8225 32.6395 28.7179 31.7441 28.7179 30.6395V17.6791C28.7179 15.8973 26.5636 15.005 25.3037 16.2649L15.7732 25.7954Z" fill="#132A64"/>
<path d="M12.9448 6.84407C13.7258 6.06303 14.9921 6.06303 15.7732 6.84407L19.3062 10.3771C22.8054 13.8763 28.7179 11.4027 28.7179 6.4555V2C28.7179 0.895429 27.8225 0 26.7179 0H2C0.895429 0 0 0.895431 0 2V14.9604C0 16.7422 2.15428 17.6345 3.41421 16.3746L12.9448 6.84407Z" fill="#132A64"/>
<path d="M48.5097 29.3198H41.8652V25.2065H48.2636C50.0801 25.2065 51.5976 24.8784 52.8164 24.2221C54.0469 23.5541 54.9668 22.5522 55.5761 21.2162C56.1972 19.8803 56.5078 18.2104 56.5078 16.2065C56.5078 14.2026 56.2031 12.5385 55.5937 11.2143C54.9844 9.89008 54.0761 8.89984 52.8691 8.24359C51.6621 7.57562 50.1679 7.24164 48.3867 7.24164H41.7246V3.12836H48.6679C51.2695 3.12836 53.5019 3.64984 55.3652 4.69281C57.2402 5.73578 58.6816 7.23578 59.6894 9.19281C60.6972 11.1498 61.2011 13.4877 61.2011 16.2065C61.2011 18.9252 60.6972 21.269 59.6894 23.2377C58.6816 25.1948 57.2285 26.7006 55.3301 27.7553C53.4433 28.7983 51.1699 29.3198 48.5097 29.3198ZM44.3613 3.12836V29.3198H39.6152V3.12836H44.3613ZM64.1367 29.3198V9.66742H68.7597V29.3198H64.1367ZM66.457 6.90765C65.7187 6.90765 65.0859 6.66156 64.5586 6.16937C64.0312 5.67719 63.7676 5.08539 63.7676 4.39398C63.7676 3.69086 64.0312 3.0932 64.5586 2.60101C65.0859 2.10883 65.7187 1.86273 66.457 1.86273C67.1836 1.86273 67.8105 2.10883 68.3379 2.60101C68.8652 3.0932 69.1289 3.685 69.1289 4.3764C69.1289 5.07953 68.8652 5.67719 68.3379 6.16937C67.8105 6.66156 67.1836 6.90765 66.457 6.90765ZM80.6953 37.0893C78.1992 37.0893 76.2363 36.603 74.8066 35.6303C73.3769 34.6694 72.457 33.5034 72.0469 32.1323L76.1953 31.1127C76.3828 31.4995 76.6582 31.8803 77.0215 32.2553C77.3847 32.642 77.8711 32.9584 78.4804 33.2045C79.0898 33.4623 79.8574 33.5912 80.7832 33.5912C82.0957 33.5912 83.1797 33.269 84.0351 32.6245C84.9023 31.9916 85.3359 30.9545 85.3359 29.5131V25.8041H85.0722C84.8496 26.2729 84.5097 26.7592 84.0527 27.2631C83.5957 27.7553 82.9922 28.1772 82.2422 28.5287C81.5039 28.8686 80.5664 29.0385 79.4297 29.0385C77.9297 29.0385 76.5644 28.6811 75.334 27.9662C74.1152 27.2514 73.1426 26.185 72.416 24.767C71.7011 23.3491 71.3437 21.5737 71.3437 19.4409C71.3437 17.2846 71.7011 15.4623 72.416 13.9741C73.1426 12.4858 74.1211 11.3549 75.3515 10.5815C76.582 9.80804 77.9531 9.42133 79.4648 9.42133C80.6133 9.42133 81.5625 9.61469 82.3125 10.0014C83.0625 10.3881 83.6601 10.8569 84.1054 11.4077C84.5508 11.9467 84.8965 12.4506 85.1426 12.9194H85.3886V9.66742H89.9062V29.6362C89.9062 31.312 89.5078 32.7006 88.7109 33.8022C87.914 34.9037 86.8183 35.7241 85.4238 36.2631C84.041 36.8139 82.4648 37.0893 80.6953 37.0893ZM80.7304 25.3998C82.207 25.3998 83.3437 24.8725 84.1406 23.8178C84.9492 22.7514 85.3535 21.2807 85.3535 19.4057C85.3535 18.1635 85.1777 17.0795 84.8261 16.1537C84.4746 15.228 83.9531 14.5073 83.2617 13.9916C82.5703 13.476 81.7265 13.2182 80.7304 13.2182C79.6992 13.2182 78.8379 13.4877 78.1465 14.0268C77.4551 14.5659 76.9336 15.3041 76.582 16.2416C76.2422 17.1674 76.0722 18.2221 76.0722 19.4057C76.0722 20.601 76.248 21.6498 76.5996 22.5522C76.9511 23.4545 77.4726 24.1577 78.164 24.6616C78.8672 25.1537 79.7226 25.3998 80.7304 25.3998ZM93.3164 29.3198V9.66742H97.9394V29.3198H93.3164ZM95.6367 6.90765C94.8984 6.90765 94.2656 6.66156 93.7383 6.16937C93.2109 5.67719 92.9472 5.08539 92.9472 4.39398C92.9472 3.69086 93.2109 3.0932 93.7383 2.60101C94.2656 2.10883 94.8984 1.86273 95.6367 1.86273C96.3633 1.86273 96.9902 2.10883 97.5176 2.60101C98.0449 3.0932 98.3086 3.685 98.3086 4.3764C98.3086 5.07953 98.0449 5.67719 97.5176 6.16937C96.9902 6.66156 96.3633 6.90765 95.6367 6.90765ZM105.146 9.66742L109.102 16.9448L113.127 9.66742H118.031L112.125 19.5112L118.137 29.3198H113.268L109.102 22.2534L105.006 29.3198H100.102L106.061 19.5112L100.242 9.66742H105.146Z" fill="#050D20"/>
</g>
<defs>
<clipPath id="clip0_759_12523">
<rect width="119" height="38" fill="white"/>
</clipPath>
</defs>
</svg>
