<svg xmlns="http://www.w3.org/2000/svg" xmlns:xlink="http://www.w3.org/1999/xlink" width="170" zoomAndPan="magnify" viewBox="0 0 127.5 37.5" height="50" preserveAspectRatio="xMidYMid meet" version="1.0"><defs><g/><clipPath id="847035c7be"><path d="M 12 0.828125 L 35.664062 0.828125 L 35.664062 36.351562 L 12 36.351562 Z M 12 0.828125 " clip-rule="nonzero"/></clipPath><clipPath id="a2ed10b9ad"><path d="M 0.878906 27 L 18 27 L 18 36.351562 L 0.878906 36.351562 Z M 0.878906 27 " clip-rule="nonzero"/></clipPath><clipPath id="36db93b498"><path d="M 0.878906 0.828125 L 16 0.828125 L 16 15 L 0.878906 15 Z M 0.878906 0.828125 " clip-rule="nonzero"/></clipPath><clipPath id="54778722c5"><path d="M 114 3 L 126.414062 3 L 126.414062 29 L 114 29 Z M 114 3 " clip-rule="nonzero"/></clipPath><clipPath id="2138c0a132"><path d="M 1 10 L 12.414062 10 L 12.414062 21 L 1 21 Z M 1 10 " clip-rule="nonzero"/></clipPath><clipPath id="81b659159a"><rect x="0" width="13" y="0" height="26"/></clipPath></defs><g clip-path="url(#847035c7be)"><path fill="#050d20" d="M 23.738281 18.246094 L 35.496094 0.839844 L 24.605469 0.839844 L 12.878906 18.195312 L 24.820312 36.160156 L 35.699219 36.160156 Z M 23.738281 18.246094 " fill-opacity="1" fill-rule="nonzero"/></g><g clip-path="url(#a2ed10b9ad)"><path fill="#0f62fe" d="M 13.996094 29.28125 L 10.722656 34.195312 L 4.546875 34.195312 L 7.820312 29.289062 L 13.996094 29.28125 M 17.667969 27.316406 L 6.769531 27.328125 L 0.878906 36.160156 L 11.769531 36.160156 Z M 17.667969 27.316406 " fill-opacity="1" fill-rule="nonzero"/></g><g clip-path="url(#36db93b498)"><path fill="#0f62fe" d="M 10.78125 2.804688 L 13.472656 6.632812 L 10.363281 11.21875 L 4.625 2.804688 L 10.78125 2.804688 M 11.800781 0.839844 L 0.910156 0.839844 L 10.371094 14.707031 L 15.855469 6.613281 Z M 11.800781 0.839844 " fill-opacity="1" fill-rule="nonzero"/></g><g fill="#0f62fe" fill-opacity="1"><g transform="translate(35.701145, 23.611789)"><g><path d="M 1.007812 -10.265625 L 1.007812 4.058594 L 3.566406 4.058594 L 3.566406 0 L 8.699219 0 C 10.03125 0 11.277344 -0.128906 11.277344 -1.933594 L 11.277344 -8.332031 C 11.277344 -10.136719 10.03125 -10.265625 8.699219 -10.265625 Z M 8.71875 -3.050781 C 8.71875 -2.449219 8.355469 -2.425781 7.773438 -2.425781 L 3.566406 -2.425781 L 3.566406 -7.839844 L 7.773438 -7.839844 C 8.355469 -7.839844 8.71875 -7.816406 8.71875 -7.21875 Z M 8.71875 -3.050781 "/></g></g></g><g fill="#0f62fe" fill-opacity="1"><g transform="translate(47.89912, 23.611789)"><g><path d="M 6.144531 -7.839844 L 6.144531 -10.265625 L 1.007812 -10.265625 L 1.007812 0 L 3.566406 0 L 3.566406 -7.839844 Z M 6.144531 -7.839844 "/></g></g></g><g fill="#0f62fe" fill-opacity="1"><g transform="translate(54.556464, 23.611789)"><g><path d="M 3.566406 -11.878906 L 3.566406 -14.328125 L 1.007812 -14.328125 L 1.007812 -11.878906 Z M 3.566406 0 L 3.566406 -10.265625 L 1.007812 -10.265625 L 1.007812 0 Z M 3.566406 0 "/></g></g></g><g fill="#0f62fe" fill-opacity="1"><g transform="translate(59.152177, 23.611789)"><g><path d="M 1.007812 -10.265625 L 1.007812 0 L 3.566406 0 L 3.566406 -7.839844 L 8.71875 -7.839844 L 8.71875 0 L 11.277344 0 L 11.277344 -7.839844 L 15.484375 -7.839844 C 16.066406 -7.839844 16.429688 -7.816406 16.429688 -7.21875 L 16.429688 0 L 18.988281 0 L 18.988281 -8.332031 C 18.988281 -10.136719 17.742188 -10.265625 16.410156 -10.265625 Z M 1.007812 -10.265625 "/></g></g></g><g fill="#0f62fe" fill-opacity="1"><g transform="translate(79.059792, 23.611789)"><g><path d="M 0.902344 -1.933594 C 0.902344 -0.128906 2.148438 0 3.480469 0 L 11.167969 0 L 11.167969 -2.425781 L 4.402344 -2.425781 C 3.824219 -2.425781 3.457031 -2.449219 3.457031 -3.050781 L 3.457031 -3.929688 L 11.167969 -3.929688 L 11.167969 -8.332031 C 11.167969 -10.136719 9.921875 -10.265625 8.589844 -10.265625 L 3.480469 -10.265625 C 2.148438 -10.265625 0.902344 -10.136719 0.902344 -8.332031 Z M 3.457031 -7.21875 C 3.457031 -7.816406 3.824219 -7.839844 4.402344 -7.839844 L 7.667969 -7.839844 C 8.246094 -7.839844 8.613281 -7.816406 8.613281 -7.21875 L 8.613281 -6.359375 L 3.457031 -6.359375 Z M 3.457031 -7.21875 "/></g></g></g><g fill="#0f62fe" fill-opacity="1"><g transform="translate(91.150388, 23.611789)"><g><path d="M 11.167969 -8.332031 C 11.167969 -10.136719 9.921875 -10.265625 8.589844 -10.265625 L 3.480469 -10.265625 C 2.148438 -10.265625 0.902344 -10.136719 0.902344 -8.332031 L 0.902344 -1.933594 C 0.902344 -0.128906 2.148438 0 3.480469 0 L 8.589844 0 C 9.921875 0 11.167969 -0.128906 11.167969 -1.933594 Z M 3.457031 -7.21875 C 3.457031 -7.816406 3.824219 -7.839844 4.402344 -7.839844 L 7.667969 -7.839844 C 8.246094 -7.839844 8.613281 -7.816406 8.613281 -7.21875 L 8.613281 -3.050781 C 8.613281 -2.449219 8.246094 -2.425781 7.667969 -2.425781 L 4.402344 -2.425781 C 3.824219 -2.425781 3.457031 -2.449219 3.457031 -3.050781 Z M 3.457031 -7.21875 "/></g></g></g><g fill="#0f62fe" fill-opacity="1"><g transform="translate(103.240983, 23.611789)"><g><path d="M 8.71875 0 L 11.277344 0 L 11.277344 -8.332031 C 11.277344 -10.136719 10.03125 -10.265625 8.699219 -10.265625 L 1.007812 -10.265625 L 1.007812 0 L 3.566406 0 L 3.566406 -7.839844 L 7.773438 -7.839844 C 8.355469 -7.839844 8.71875 -7.816406 8.71875 -7.21875 Z M 8.71875 0 "/></g></g></g><g clip-path="url(#54778722c5)"><g transform="matrix(1, 0, 0, 1, 114, 3)"><g clip-path="url(#81b659159a)"><g clip-path="url(#2138c0a132)"><g fill="#050d20" fill-opacity="1"><g transform="translate(1.760903, 20.409086)"><g><path d="M -0.3125 -1.125 L 1.0625 -1.40625 L 3.765625 -4.890625 L 1.453125 -8.46875 L -0.265625 -8.984375 L -0.265625 -10.09375 L 3.78125 -10.09375 L 5.71875 -6.921875 L 7 -8.578125 L 7 -8.71875 L 5.890625 -8.984375 L 5.890625 -10.09375 L 10.484375 -10.09375 L 10.484375 -8.984375 L 9.203125 -8.6875 L 6.59375 -5.484375 L 8.9375 -1.625 L 10.703125 -1.125 L 10.703125 0 L 6.4375 0 L 6.4375 -0.390625 C 6.4375 -0.628906 6.367188 -0.859375 6.234375 -1.078125 L 4.703125 -3.421875 L 3.3125 -1.5625 L 3.3125 -1.359375 L 4.453125 -1.125 L 4.453125 0 L -0.3125 0 Z M -0.3125 -1.125 "/></g></g></g></g></g></g></g></svg>